<svg width="333" height="132" fill="none" xmlns="http://www.w3.org/2000/svg"><g opacity=".7" clip-path="url(#clip0_40_469)"><path fill-rule="evenodd" clip-rule="evenodd" d="M177.765 166.321c5.157 1.977 10.94-.601 12.917-5.758l21.996-57.382c1.977-5.157-.601-10.94-5.758-12.917l-10.2-3.91-11.164-4.28-11.165-4.28-10.117-3.878-.781-.299c-5.157-1.977-10.94.601-12.916 5.758l-21.997 57.382c-1.977 5.157.601 10.94 5.758 12.917l43.427 16.647z" fill="#FFAA4C"/><path d="M196.72 86.354l10.2 3.91c5.157 1.977 7.735 7.76 5.758 12.917l-21.996 57.382c-1.977 5.157-7.76 7.735-12.917 5.758l-43.427-16.647c-5.157-1.977-7.735-7.76-5.758-12.917l21.997-57.382c1.976-5.157 7.759-7.735 12.916-5.758l.781.3m32.446 12.437c1.977-7.245 3.366-22.559-6.896-25.852-10.262-3.294-14.564 10.156-15.433 17.293m22.329 8.559l-11.164-4.28m-11.165-4.28l11.165 4.28m-11.165-4.28l-10.117-3.878m21.282 8.158c3.899-9.913 9.399-30.433.198-33.21-9.201-2.777-18.154 15.544-21.48 25.052" stroke="#FFAA4C" stroke-width="2" stroke-linecap="round" stroke-linejoin="round"/></g><g opacity=".7" clip-path="url(#clip1_40_469)"><path fill-rule="evenodd" clip-rule="evenodd" d="M39.991 151.52c-4.697 2.905-10.86 1.454-13.765-3.243L6 115.585c-2.905-4.697-1.453-10.86 3.243-13.765l4.263-2.638 7.296-4.513 7.295-4.513 6.612-4.09a7.774 7.774 0 0110.701 2.52l21.397 34.585c2.905 4.697 1.453 10.86-3.243 13.765L39.99 151.52z" fill="#2FDBBC"/><path d="M13.506 99.182l-4.263 2.638c-4.696 2.905-6.148 9.068-3.243 13.765l20.226 32.692c2.906 4.697 9.069 6.148 13.765 3.243l23.573-14.584c4.696-2.905 6.148-9.068 3.243-13.765L45.41 88.586a7.774 7.774 0 00-10.701-2.52v0M13.506 99.181c-2.365-4.841-5.397-15.45 1.395-19.147 6.791-3.697 11.627 5.207 13.196 10.12m-14.59 9.027l7.295-4.513m7.295-4.513l-7.295 4.513m7.295-4.513l6.612-4.09m-13.907 8.603c-4.078-6.465-10.706-20.191-4.593-23.382 6.114-3.191 14.88 8.522 18.5 14.778" stroke="#2FDBBC" stroke-width="2" stroke-linecap="round" stroke-linejoin="round"/></g><g opacity=".7" clip-path="url(#clip2_40_469)"><path fill-rule="evenodd" clip-rule="evenodd" d="M325.268 22.658a6.947 6.947 0 018.471 5.143l14.355 61.061a6.945 6.945 0 01-3.801 7.873l-31.107 14.657a6.952 6.952 0 01-3.805.611l-15.115-1.851a6.944 6.944 0 01-5.931-5.365l-14.049-62.213a6.946 6.946 0 015.067-8.263l5.05-1.281 11.607-2.946 9.995-2.537L316 25.01l9.268-2.352z" fill="#A64CED"/><path d="M296.01 30.084c-1.477-5.822-2.498-17.956 5.24-19.92 7.738-1.963 13.058 9.08 14.75 14.846m-19.99 5.074l9.995-2.537m-9.995 2.537l-11.607 2.946M316 25.01l9.268-2.352a6.947 6.947 0 018.471 5.143l14.355 61.061a6.945 6.945 0 01-3.801 7.873l-31.107 14.657a6.952 6.952 0 01-3.805.611l-15.115-1.851a6.944 6.944 0 01-5.931-5.365l-14.049-62.213a6.946 6.946 0 015.067-8.263l5.05-1.281M316 25.01l-9.995 2.537m0 0c-2.757-9.013-10.443-26.506-19.125-24.38-8.682 2.126-5.269 20.794-2.477 29.863" stroke="#A64CED" stroke-width="1.389" stroke-linecap="round" stroke-linejoin="round"/><path d="M310.223 104.237l-3.853-13.844m-11.559-41.534l7.706 27.689" stroke="#fff" stroke-width="1.389" stroke-linecap="round" stroke-linejoin="round"/></g><defs><clipPath id="clip0_40_469"><path fill="#fff" transform="translate(125 46)" d="M0 0h93v86H0z"/></clipPath><clipPath id="clip1_40_469"><path fill="#fff" transform="translate(0 68)" d="M0 0h72v64H0z"/></clipPath><clipPath id="clip2_40_469"><path fill="#fff" transform="translate(272)" d="M0 0h61v116H0z"/></clipPath></defs></svg>