<svg width="343" height="193" fill="none" xmlns="http://www.w3.org/2000/svg"><g clip-path="url(#clip0_0_944)"><path opacity=".7" d="M168.317 249.981c-3.52-42.24-61.307-64.036-112.788-57.581-49.957 6.263-65.587 39.187-46.518 44.451 12.346 3.408 32.667-18.921 28.52-50.906-4.146-31.985-53.187-35.094-67.616-20.539-14.428 14.556 16.327 37.055 26.585 16.841 11.198-22.065 4.235-74.692-31.39-71.914-4.904 6.163-9.68 19.694 10.445 24.519C.71 140.883 40.65 92.073 30.968 49.702 21.284 7.333-34.89 27.93-20.578 69.587" stroke="#A64CED" stroke-width="38.287"/><rect opacity=".7" x="20" y="66.477" width="114.624" height="229.974" rx="21.764" transform="rotate(-31.844 20 66.477)" fill="#000"/><g clip-path="url(#clip1_0_944)"><rect x="24.995" y="67.645" width="107.369" height="222.719" rx="18.137" transform="rotate(-31.844 24.995 67.645)" fill="#fff"/><g clip-path="url(#clip2_0_944)"><rect x="57.187" y="105.724" width="92.86" height="76.9" rx="14.509" transform="rotate(-31.844 57.187 105.724)" fill="#F9F9F9"/><path opacity=".7" d="M91.42 155.343l12.326-7.655" stroke="#2FDBBC" stroke-width="87.056" stroke-linecap="round"/><circle cx="87.01" cy="139.562" r="1.814" transform="rotate(-7.312 87.01 139.562)" fill="#000"/><circle cx="101.751" cy="134.744" r="1.814" transform="rotate(-7.312 101.751 134.744)" fill="#000"/><path d="M99.836 152.759c2.04.29 5.516-1.798 1.987-4.73 5.238-3.254-1.713-6.196-4.48-2.827m42.706-7.536c2.279-.977 3.683-2.251 4.299-3.435m-6.953-2.192c5.698-2.716 8.349-.491 6.953 2.192m-16.089 20.25c11.709 7.877 5.895-15.067 4.416-20.056-1.479-4.989-4.621-13.925-.405-14.681 3.373-.605 3.759 4.806 4.049 8.667-.29-3.861-.287-10.288 2.435-10.095 4.031.285 3.075 6.491 2.325 9.509m-1.955 1.728c1.607-1.792 5.879-4.801 8.298-1.966 1.33 1.558.838 3.112-.188 4.359m-2.886 2.285c.848-.446 2.046-1.262 2.886-2.285m0 0c3.793 7.802 6.54 20.399 4.022 28.546-2.519 8.147-9.797 12.443-11.959 12.919" stroke="#000" stroke-width="1.451" stroke-linecap="round" stroke-linejoin="round"/><circle cx="131.406" cy="101.472" r="3.627" transform="rotate(-31.844 131.406 101.472)" stroke="#000" stroke-width="1.451"/><circle cx="149.914" cy="83.145" r="3.627" transform="rotate(-31.844 149.914 83.145)" stroke="#000" stroke-width="1.451"/><path d="M134.222 98.442l12.685-12.575m-17.606 12.216l-8.485-17.788m-5.654.522l11.349-2.352" stroke="#000" stroke-width="1.451" stroke-linecap="round" stroke-linejoin="round"/></g><g clip-path="url(#clip3_0_944)"><rect x="46.086" y="87.852" width="17.411" height="17.411" rx="8.706" transform="rotate(-31.844 46.086 87.852)" fill="#DAFAF4"/><rect opacity=".7" x="50.679" y="95.247" width="17.411" height="13.058" rx="6.529" transform="rotate(-31.844 50.679 95.247)" fill="#2FDBBC"/><circle cx="59.022" cy="95.617" r=".363" transform="rotate(-31.844 59.022 95.617)" fill="#000"/><circle cx="62.103" cy="93.703" r=".363" transform="rotate(-31.844 62.103 93.703)" fill="#000"/></g><path d="M70.979 85.663l-.377-.606 1.553-.965c.296-.184.474-.414.535-.69.057-.282.01-.546-.144-.793a1.075 1.075 0 00-.391-.382.937.937 0 00-.528-.123 1.138 1.138 0 00-.561.185l-1.575.978-.377-.606 1.472-.915c.246-.153.401-.338.465-.555.065-.225.02-.46-.132-.707-.153-.246-.346-.386-.579-.42-.235-.038-.479.021-.73.177l-1.442.896-.377-.606 1.457-.905c.335-.208.652-.32.95-.334a1.461 1.461 0 011.386.697c.172.276.246.565.221.867-.019.299-.137.598-.355.897l-.078-.259c.403-.087.772-.066 1.104.062.334.12.603.343.805.669.168.27.253.556.255.856.001.3-.082.594-.25.883-.168.281-.431.534-.791.757l-1.516.942zm-.466.29l-3.188-5.133.695-.432 3.188 5.133-.695.431zm5.948-3.592a1.856 1.856 0 01-.896.29c-.31.008-.6-.065-.873-.217a1.928 1.928 0 01-.692-.686l-1.268-2.042.665-.413 1.25 2.012c.12.192.255.34.408.443a.87.87 0 00.493.134c.175-.006.348-.062.52-.17.262-.162.416-.37.463-.624.043-.26-.025-.535-.206-.826l-1.249-2.012.666-.413 1.267 2.041c.19.306.293.614.309.926.016.31-.049.604-.193.878a1.813 1.813 0 01-.664.679zm4.25-2.64a1.882 1.882 0 01-.827.288 1.6 1.6 0 01-1.432-.689l-.656-1.057a1.562 1.562 0 01-.204-.807c.01-.28.088-.54.233-.78.146-.248.35-.453.612-.615.32-.2.659-.297 1.016-.294.363 0 .704.093 1.023.277.32.184.586.45.8.794.215.345.334.702.358 1.07.023.368-.045.714-.206 1.04a1.905 1.905 0 01-.718.773zm-.502-.56c.222-.137.384-.31.488-.517.103-.208.149-.431.137-.67a1.532 1.532 0 00-.242-.72 1.514 1.514 0 00-.534-.53 1.252 1.252 0 00-.661-.173 1.26 1.26 0 00-.674.203c-.221.137-.384.31-.487.518-.107.203-.15.424-.13.665.02.24.103.479.25.716.143.231.316.41.518.538.204.12.422.179.654.178a1.31 1.31 0 00.68-.207zm-1.394 1.635l-3.28-5.28.666-.414 1.631 2.625.403.929.658.78.588.946-.665.414zm4.312-2.678l-2.182-3.513.666-.413 2.182 3.512-.666.414zm-2.285-4.422a.483.483 0 01-.377.07.513.513 0 01-.311-.237.472.472 0 01-.066-.37.468.468 0 01.226-.314.468.468 0 01.38-.062c.129.03.23.104.303.222a.513.513 0 01.075.384.483.483 0 01-.23.307z" fill="#B9B9B9"/><path d="M41.198 75.978L37.983 70.8l.85-.528 3.215 5.176-.85.529zm-.794-2.582l-.482-.776 2.633-1.636.482.777-2.633 1.635zm-1.355-2.181l-.482-.777 2.758-1.713.483.776-2.759 1.713zm7.785 1.365c-.355.22-.725.34-1.109.36a2.182 2.182 0 01-1.086-.247 2.184 2.184 0 01-.832-.795 2.135 2.135 0 01-.34-1.091c-.011-.382.07-.74.246-1.075.18-.337.44-.611.78-.822.33-.206.668-.31 1.015-.313.351-.006.68.079.99.256.313.175.575.432.786.772.037.06.07.124.1.194.032.063.063.135.095.218l-2.914 1.81-.414-.665 2.493-1.548-.138.454a1.61 1.61 0 00-.466-.469.927.927 0 00-.53-.143 1.128 1.128 0 00-.568.19c-.207.128-.36.285-.457.468a1.065 1.065 0 00-.121.598c.014.21.09.425.228.647.138.222.303.39.496.502.193.112.4.165.62.158a1.36 1.36 0 00.645-.216c.183-.114.33-.25.443-.409.118-.162.193-.338.225-.529l.844.204a1.96 1.96 0 01-.344.849 2.37 2.37 0 01-.687.642zm3.95-2.454c-.355.22-.724.34-1.108.36a2.182 2.182 0 01-1.087-.247 2.184 2.184 0 01-.831-.795 2.137 2.137 0 01-.34-1.09c-.012-.383.07-.741.245-1.075.18-.337.44-.612.78-.823.33-.205.669-.31 1.015-.313.352-.006.681.08.99.257a2.156 2.156 0 01.886.966c.032.062.064.135.095.218l-2.914 1.81-.413-.666 2.492-1.548-.138.455a1.6 1.6 0 00-.465-.47.927.927 0 00-.53-.142 1.127 1.127 0 00-.569.19 1.23 1.23 0 00-.457.468 1.064 1.064 0 00-.12.597c.014.21.09.426.227.648.138.222.303.389.496.501.193.113.4.165.621.158a1.36 1.36 0 00.645-.216c.182-.113.33-.25.443-.409a1.23 1.23 0 00.225-.528l.843.203c-.047.31-.161.592-.343.849-.183.257-.412.47-.688.642zm3.788-2.352c-.32.199-.662.298-1.024.297a2.109 2.109 0 01-1.023-.276 2.337 2.337 0 01-.805-.802 2.305 2.305 0 01-.362-1.077 2.092 2.092 0 01.2-1.047 1.87 1.87 0 01.717-.793c.272-.168.547-.258.828-.268.282-.018.548.035.797.16.248.126.453.317.612.574l.634 1.02c.159.257.24.524.242.803.007.276-.058.538-.197.788a1.78 1.78 0 01-.62.62zm-.345-.852c.203-.126.35-.279.443-.46a1.13 1.13 0 00.116-.605 1.424 1.424 0 00-.224-.64 1.425 1.425 0 00-.474-.483 1.064 1.064 0 00-.59-.157 1.13 1.13 0 00-.612.185 1.143 1.143 0 00-.559 1.064c.018.215.092.429.224.64.132.213.29.374.475.485.19.107.387.162.594.164.208-.006.41-.07.607-.193zm2.2-.403l-.814.505-.592-.954-.397-.952-.674-.77-1.644-2.648.814-.505 3.307 5.324z" fill="#E4E4E4"/><g clip-path="url(#clip4_0_944)"><rect x="129.912" y="222.816" width="92.86" height="76.9" rx="14.509" transform="rotate(-31.844 129.912 222.816)" fill="#F9F9F9"/><path opacity=".7" d="M243.425 192.452l-39.442 24.497" stroke="#FFAA4C" stroke-width="69.881" stroke-linecap="round"/><circle cx="197.878" cy="200.245" r="5.078" transform="rotate(-31.844 197.878 200.245)" stroke="#000" stroke-width="1.451"/></g><path d="M143.704 202.755l-.376-.606 1.553-.965c.296-.183.474-.414.534-.69.058-.282.01-.546-.143-.792a1.084 1.084 0 00-.391-.383.939.939 0 00-.528-.123 1.148 1.148 0 00-.562.185l-1.575.978-.376-.606 1.471-.914c.247-.153.402-.338.465-.555.065-.225.021-.461-.132-.708-.153-.246-.346-.386-.578-.419-.236-.038-.479.021-.731.177l-1.442.895-.376-.606 1.457-.905c.335-.208.652-.319.95-.334a1.461 1.461 0 011.386.697c.172.276.245.565.221.867-.019.299-.138.598-.355.897l-.079-.259c.404-.087.772-.066 1.105.062.334.121.602.344.804.669.169.271.254.557.255.856.002.3-.082.594-.25.883-.167.282-.431.534-.791.758l-1.516.941zm-.465.29l-3.188-5.133.695-.431 3.188 5.132-.695.432zm5.947-3.592a1.853 1.853 0 01-.896.29 1.67 1.67 0 01-.872-.216 1.936 1.936 0 01-.693-.687l-1.268-2.041.666-.414 1.249 2.012c.12.192.256.34.409.443.154.095.319.14.493.134.174-.005.348-.062.52-.169.261-.162.415-.371.462-.625.044-.26-.024-.535-.205-.826l-1.249-2.011.665-.414 1.268 2.041c.19.306.293.615.308.926a1.67 1.67 0 01-.192.878 1.811 1.811 0 01-.665.679zm4.25-2.639a1.882 1.882 0 01-.826.287 1.593 1.593 0 01-1.432-.689l-.657-1.057a1.564 1.564 0 01-.203-.806c.01-.28.088-.54.232-.78.147-.248.351-.454.612-.616a1.86 1.86 0 011.017-.293c.362 0 .703.092 1.023.277.319.184.586.449.8.794.215.345.334.701.357 1.069.024.368-.045.715-.205 1.04a1.904 1.904 0 01-.718.774zm-.502-.56c.222-.138.385-.311.488-.518.104-.208.149-.431.138-.67a1.534 1.534 0 00-.243-.72 1.526 1.526 0 00-.533-.53 1.25 1.25 0 00-.662-.173 1.266 1.266 0 00-.673.203c-.222.138-.384.31-.488.518a1.202 1.202 0 00-.13.665c.02.241.103.479.25.716.144.232.317.411.519.538.204.12.422.179.654.179.237-.004.464-.073.68-.208zm-1.393 1.634l-3.28-5.28.666-.414 1.631 2.626.402.928.659.78.588.947-.666.413zm5.763-3.477a1.846 1.846 0 01-.896.29c-.31.008-.6-.064-.873-.216a1.918 1.918 0 01-.692-.687l-1.268-2.041.665-.413 1.25 2.011c.119.192.255.34.408.443.155.095.319.14.494.135.174-.006.347-.062.52-.17.261-.162.415-.37.462-.625.044-.259-.025-.535-.206-.826l-1.249-2.011.666-.413 1.267 2.041c.19.305.293.614.309.925a1.67 1.67 0 01-.193.878 1.801 1.801 0 01-.664.679z" fill="#B9B9B9"/><rect opacity=".7" x="63.25" y="54.987" width="29.019" height="7.255" rx="3.627" transform="rotate(-31.844 63.25 54.987)" fill="#000"/><path d="M105.028 181.399l-3.188-5.132.695-.432 3.188 5.132-.695.432zm5.221-3.14a1.878 1.878 0 01-.826.287 1.604 1.604 0 01-.799-.149 1.605 1.605 0 01-.633-.54l-.657-1.057a1.566 1.566 0 01-.203-.806c.01-.28.088-.54.233-.781.146-.248.35-.453.611-.615a1.86 1.86 0 011.017-.293c.363 0 .704.092 1.023.276.319.185.586.449.8.794.215.346.334.702.357 1.07.024.368-.044.714-.205 1.039a1.9 1.9 0 01-.718.775zm-.501-.56c.222-.138.384-.311.488-.518.103-.208.149-.431.137-.67a1.529 1.529 0 00-.242-.72 1.512 1.512 0 00-.534-.53 1.247 1.247 0 00-.661-.173 1.26 1.26 0 00-.674.203c-.222.138-.384.31-.487.518-.107.203-.15.424-.131.665.02.241.103.479.25.716.144.231.317.411.519.538.204.12.422.179.654.178.237-.003.464-.072.681-.207zm-1.394 1.634l-3.279-5.28.665-.414 1.631 2.626.402.928.659.78.588.946-.666.414zm5.955-3.596a2.113 2.113 0 01-1.083.334 2.153 2.153 0 01-1.067-.249 2.16 2.16 0 01-.827-.788 2.052 2.052 0 01-.326-1.068 2.129 2.129 0 011.03-1.89c.34-.211.699-.321 1.076-.33.379-.017.735.062 1.069.237.335.175.607.433.819.773.214.345.327.709.339 1.091.009.377-.077.734-.257 1.072a2.103 2.103 0 01-.773.818zm-.399-.644c.222-.137.387-.312.495-.522.108-.211.156-.436.145-.675a1.519 1.519 0 00-.238-.713 1.402 1.402 0 00-.532-.51 1.246 1.246 0 00-.664-.161c-.232 0-.459.07-.681.207a1.324 1.324 0 00-.644 1.19c.011.239.088.471.228.698.144.232.322.408.534.53a1.31 1.31 0 001.357-.044zm4.396-1.838a1.867 1.867 0 01-.896.29c-.31.007-.6-.065-.872-.217a1.913 1.913 0 01-.693-.687l-1.268-2.041.665-.413 1.25 2.011c.119.193.255.34.408.444a.877.877 0 00.494.134 1.05 1.05 0 00.52-.169c.261-.163.415-.371.462-.626.044-.259-.025-.534-.205-.825l-1.25-2.012.666-.413 1.267 2.041c.19.306.293.614.309.925a1.67 1.67 0 01-.193.878 1.81 1.81 0 01-.664.68zm4.771-.925a2.608 2.608 0 01-1.085.398 1.982 1.982 0 01-1.015-.149l.158-.703c.257.094.512.126.768.098.258-.024.523-.12.794-.289.36-.223.584-.496.672-.817.095-.319.043-.638-.156-.959l-.542-.872-.373-.865-.605-.711-.574-.924.666-.413 2.094 3.372c.208.335.312.677.31 1.027.003.346-.091.678-.283.996a2.432 2.432 0 01-.829.811zm-.996-1.605c-.321.2-.657.302-1.008.309a1.971 1.971 0 01-.989-.257 2.185 2.185 0 01-.787-.772 2.097 2.097 0 01-.334-1.032 1.966 1.966 0 01.208-1.001c.159-.317.398-.575.719-.774.276-.172.554-.269.833-.292.279-.023.542.025.788.146.247.113.457.297.629.552l.579.932c.144.265.214.536.208.813a1.498 1.498 0 01-.223.764c-.144.24-.352.444-.623.612zm-.258-.711c.217-.135.378-.299.483-.494.109-.198.156-.408.141-.631a1.523 1.523 0 00-.239-.681 1.41 1.41 0 00-.508-.505 1.129 1.129 0 00-.625-.165 1.298 1.298 0 00-.669.21 1.333 1.333 0 00-.492.511c-.11.198-.16.414-.152.648.011.225.085.449.223.671.137.222.307.39.508.504.205.112.423.165.652.159.23-.013.457-.089.678-.227zm5.605-2.528l-1.272-2.048c-.166-.266-.386-.434-.661-.502-.274-.069-.545-.02-.811.145-.178.11-.311.248-.4.412-.089.165-.13.341-.123.528.007.187.065.369.175.547l-.37.014a1.652 1.652 0 01-.263-.82 1.51 1.51 0 01.192-.796c.136-.255.337-.465.603-.63.266-.165.537-.252.813-.259.28-.01.545.054.795.192.25.139.461.346.633.622l1.355 2.182-.666.413zm-2.485 1.544l-3.279-5.281.665-.413 3.28 5.28-.666.414zm4.548-2.825l-3.096-4.985.666-.413 3.096 4.984-.666.414zm-2.67-2.369l-.377-.607 2.396-1.488.377.607-2.396 1.488zm6.391.058l-2.181-3.513.665-.414 2.182 3.513-.666.414zm2.374-1.475l-1.318-2.122c-.162-.262-.371-.416-.625-.462a.973.973 0 00-.742.142 1.075 1.075 0 00-.372.375.978.978 0 00-.131.481.95.95 0 00.157.517l-.356.037a1.605 1.605 0 01-.262-.801c-.004-.27.061-.523.196-.757.132-.239.323-.436.575-.592.246-.153.502-.237.766-.251.27-.017.523.038.758.165.241.123.446.321.614.592l1.406 2.263-.666.413zm2.374-1.474l-1.318-2.123c-.162-.261-.371-.415-.625-.462a.96.96 0 00-.734.138 1.12 1.12 0 00-.38.379.945.945 0 00.026.999l-.46.101a1.605 1.605 0 01-.217-.828c.01-.28.086-.539.225-.776.137-.242.329-.439.575-.592.256-.16.519-.248.789-.265.269-.017.525.036.765.16.246.121.455.319.626.595l1.401 2.256-.673.418zm2.751-1.668l-3.724-2.596.74-.459 2.854 2.07-.237.147-.532-3.512.74-.46.558 4.562-.399.248zm-.11 2.067l-.283-2.765.792.45.23 1.856-.739.459zm3.769-4.278c-.197.123-.4.214-.608.275a2.379 2.379 0 01-.618.077 2.041 2.041 0 01-.601-.109l.163-.695c.226.078.447.104.664.079a1.61 1.61 0 00.631-.238c.207-.129.346-.263.416-.402a.404.404 0 00-.018-.409.404.404 0 00-.324-.208 1.183 1.183 0 00-.458.038 8.777 8.777 0 00-.546.144 3.267 3.267 0 01-.566.096 1.193 1.193 0 01-.543-.083c-.168-.073-.318-.216-.45-.428a1.123 1.123 0 01-.185-.644 1.18 1.18 0 01.204-.628c.136-.2.334-.382.595-.544a2.03 2.03 0 01.824-.307c.275-.041.542-.008.799.098l-.162.696a1.16 1.16 0 00-.554-.066c-.186.019-.37.086-.552.199-.193.12-.319.246-.38.379a.364.364 0 00.022.366.376.376 0 00.303.191c.129.009.278-.009.449-.053.175-.048.357-.096.546-.145.185-.053.374-.085.566-.095.192-.01.373.024.545.102.176.075.332.221.466.438.206.33.25.665.132 1.004-.112.336-.365.627-.76.872zm3.666-2.277a2.24 2.24 0 01-1.093.351c-.382.012-.74-.07-1.074-.245a2.135 2.135 0 01-.828-.787 2.178 2.178 0 01-.342-1.079 2.097 2.097 0 01.247-1.055 2.1 2.1 0 01.772-.818c.326-.202.658-.306.996-.311.343-.008.665.075.966.251.305.172.56.424.765.754.031.049.062.105.094.167.029.058.059.128.09.211l-2.966 1.842-.344-.555 2.61-1.621-.111.366a1.525 1.525 0 00-.497-.521 1.053 1.053 0 00-.594-.164 1.222 1.222 0 00-.642.204 1.391 1.391 0 00-.507.52 1.179 1.179 0 00-.142.662c.016.236.1.474.25.716.153.246.337.433.552.559.212.121.441.177.688.167.243-.015.483-.096.72-.243a1.6 1.6 0 00.476-.439c.124-.173.203-.365.236-.577l.7.17a1.927 1.927 0 01-.341.837 2.3 2.3 0 01-.681.638zm2.292-1.526l-3.279-5.28.665-.414 3.28 5.281-.666.413zm2.143-1.331l-2.508-4.037a1.556 1.556 0 01-.253-.786c-.009-.268.05-.52.177-.756.132-.239.331-.441.597-.606.202-.126.398-.2.589-.223a1.53 1.53 0 01.595.051l-.17.7a.737.737 0 00-.311-.022.743.743 0 00-.325.12c-.212.131-.339.295-.38.492-.037.194.012.399.146.616l2.508 4.038-.665.413zm-2.671-2.369l-.376-.606 2.647-1.644.377.606-2.648 1.644zm-37.547 40.4c-.32.199-.66.301-1.02.305-.362 0-.705-.091-1.03-.272a2.284 2.284 0 01-.8-.794 2.273 2.273 0 01-.357-1.07c-.019-.371.05-.717.205-1.039a1.92 1.92 0 01.728-.791c.267-.165.538-.255.816-.271a1.563 1.563 0 011.427.682l.657 1.057c.142.261.209.53.204.806a1.541 1.541 0 01-.214.779c-.139.237-.345.44-.616.608zm-.28-.698c.331-.205.528-.481.592-.828.062-.353-.016-.704-.234-1.054a1.556 1.556 0 00-.531-.541 1.136 1.136 0 00-.646-.183c-.232.001-.459.07-.681.208a1.322 1.322 0 00-.495.522 1.318 1.318 0 00-.133.677c.017.236.097.47.241.701.147.237.324.417.531.542.209.116.432.172.668.169.237-.004.467-.075.688-.213zm1.402-.102l-.587-.946-.408-.936-.653-.773-.533-.857.673-.418 2.181 3.512-.673.418zm4.127-2.563l-1.272-2.048a1.06 1.06 0 00-.66-.502c-.275-.069-.546-.02-.812.145-.177.11-.311.248-.4.412-.089.165-.13.341-.123.528.007.187.066.369.176.547l-.37.014a1.643 1.643 0 01-.264-.82c-.01-.281.054-.546.193-.796.135-.255.336-.465.602-.63a1.47 1.47 0 01.827-.237c.289.005.561.079.814.222.25.139.45.329.6.57l1.355 2.182-.666.413zm-2.485 1.543l-2.181-3.512.665-.414 2.182 3.513-.666.413zm7.263-4.408a2.23 2.23 0 01-1.093.351 2.135 2.135 0 01-1.075-.244 2.135 2.135 0 01-.827-.788 2.168 2.168 0 01-.342-1.079 2.107 2.107 0 01.246-1.055c.175-.334.433-.607.773-.818.326-.202.657-.306.996-.311a1.79 1.79 0 01.965.251c.306.172.561.424.766.754.031.049.062.105.094.167a2.5 2.5 0 01.089.211l-2.965 1.842-.345-.555 2.611-1.621-.111.366a1.527 1.527 0 00-.498-.521 1.05 1.05 0 00-.593-.164 1.222 1.222 0 00-.642.204 1.402 1.402 0 00-.508.52 1.196 1.196 0 00-.142.662c.017.236.1.474.25.716.153.246.337.433.552.559.212.121.442.177.688.167.244-.015.484-.096.721-.243.197-.122.355-.268.475-.438.125-.173.204-.366.236-.577l.7.17c-.045.301-.159.58-.341.836a2.283 2.283 0 01-.68.638zm2.292-1.526l-3.279-5.28.665-.414 3.28 5.281-.666.413zm3.312-1.955c-.35.218-.714.335-1.093.352-.382.011-.74-.07-1.075-.245a2.142 2.142 0 01-.827-.788 2.178 2.178 0 01-.342-1.079 2.1 2.1 0 01.247-1.055 2.1 2.1 0 01.772-.818c.326-.202.658-.306.996-.311.343-.008.665.076.966.251.305.173.56.424.765.754a2.059 2.059 0 01.184.378l-2.966 1.842-.344-.554 2.61-1.622-.111.366a1.543 1.543 0 00-.497-.521 1.06 1.06 0 00-.594-.164 1.222 1.222 0 00-.642.204 1.391 1.391 0 00-.507.52 1.18 1.18 0 00-.142.662c.016.236.099.475.25.716.153.247.337.433.552.559.212.121.441.177.688.167.243-.014.483-.095.72-.242.197-.123.356-.269.476-.439.124-.173.203-.366.236-.577l.7.17c-.046.301-.159.58-.342.837a2.28 2.28 0 01-.68.637zm3.943-2.448a2.172 2.172 0 01-1.091.339 2.157 2.157 0 01-1.067-.25 2.2 2.2 0 01-.815-.784 2.181 2.181 0 01-.342-1.079 2.088 2.088 0 01.254-1.06c.18-.337.442-.613.787-.827.272-.169.555-.273.851-.313.293-.046.583-.024.87.064l-.168.719a1.19 1.19 0 00-.578-.04 1.447 1.447 0 00-.575.213 1.324 1.324 0 00-.645 1.19c.012.238.09.474.234.705.144.232.32.406.529.522a1.3 1.3 0 001.357-.043c.187-.116.337-.254.45-.413.115-.167.189-.35.223-.548l.712.172a1.963 1.963 0 01-.328.809 2.162 2.162 0 01-.658.624zm2.464-1.633l-3.096-4.985.666-.413 3.096 4.984-.666.414zm-2.67-2.369l-.377-.607 2.396-1.488.377.606-2.396 1.489zm4.853 1.013l-2.182-3.513.666-.413 2.182 3.513-.666.413zm-.579-2.418l-.321.046c-.278-.449-.397-.871-.355-1.266.042-.394.257-.713.647-.955a1.37 1.37 0 01.54-.202c.18-.03.376-.011.588.055l-.156.722a.778.778 0 00-.35-.018.99.99 0 00-.343.141.967.967 0 00-.459.613c-.06.256.01.544.209.864zm3.555.57l-2.182-3.513.665-.413 2.182 3.512-.665.414zm-2.286-4.422a.484.484 0 01-.376.07.517.517 0 01-.312-.237.476.476 0 01-.065-.37.472.472 0 01.225-.314.469.469 0 01.381-.062c.128.03.229.104.302.222a.51.51 0 01.075.384.483.483 0 01-.23.307zm5.583 2.476a2.163 2.163 0 01-1.091.34 2.165 2.165 0 01-1.067-.25 2.195 2.195 0 01-.815-.785 2.155 2.155 0 01-.342-1.078 2.087 2.087 0 01.253-1.06c.18-.337.443-.613.788-.827.271-.169.555-.273.851-.314.293-.045.583-.023.87.065l-.168.719a1.194 1.194 0 00-.579-.04 1.449 1.449 0 00-.574.213 1.324 1.324 0 00-.495.523 1.24 1.24 0 00-.15.667c.012.238.089.474.233.705.144.232.321.406.53.522a1.305 1.305 0 001.356-.043 1.54 1.54 0 00.451-.413 1.36 1.36 0 00.223-.549l.712.173a1.976 1.976 0 01-.328.809 2.159 2.159 0 01-.658.623zm4.668-2.899a2.48 2.48 0 01-.608.275 2.423 2.423 0 01-.618.077 2.041 2.041 0 01-.601-.109l.163-.695c.226.078.447.104.664.079.214-.03.424-.11.631-.238.207-.129.346-.263.416-.402a.404.404 0 00-.018-.409.409.409 0 00-.324-.209 1.185 1.185 0 00-.458.039 7.973 7.973 0 00-.546.144c-.188.049-.377.08-.566.095a1.18 1.18 0 01-.543-.082c-.168-.073-.318-.216-.45-.428a1.125 1.125 0 01-.185-.644 1.18 1.18 0 01.204-.628 1.93 1.93 0 01.595-.544c.276-.172.551-.274.824-.307.275-.041.541-.008.799.098l-.163.696a1.167 1.167 0 00-.553-.067c-.186.02-.37.087-.552.2-.193.119-.319.246-.38.379a.364.364 0 00.022.366.376.376 0 00.303.191c.129.009.278-.009.449-.054l.546-.144c.185-.054.374-.085.566-.095.192-.01.373.024.545.102.176.075.332.221.466.438.205.33.249.665.132 1.004-.112.336-.365.627-.76.872zm3.644-2.263a2.169 2.169 0 01-1.091.339 2.157 2.157 0 01-1.067-.25 2.2 2.2 0 01-.815-.784 2.181 2.181 0 01-.342-1.079 2.088 2.088 0 01.254-1.06 2.16 2.16 0 01.788-.827c.271-.169.554-.273.85-.313.293-.046.583-.024.87.064l-.168.719a1.19 1.19 0 00-.578-.04 1.453 1.453 0 00-.575.213 1.324 1.324 0 00-.644 1.19c.011.238.089.474.233.705.144.232.32.406.529.522a1.301 1.301 0 001.357-.043c.187-.116.337-.254.45-.413.115-.167.189-.35.223-.548l.712.172a1.963 1.963 0 01-.328.809 2.162 2.162 0 01-.658.624zm3.546-2.203a2.124 2.124 0 01-2.15.085 2.174 2.174 0 01-.828-.787 2.063 2.063 0 01-.325-1.069 2.121 2.121 0 011.03-1.89c.34-.211.698-.321 1.076-.33a2.099 2.099 0 011.888 1.011c.214.345.327.708.339 1.09.009.377-.077.735-.257 1.072a2.103 2.103 0 01-.773.818zm-.399-.643c.221-.138.387-.312.495-.523a1.32 1.32 0 00.145-.674 1.512 1.512 0 00-.238-.713 1.387 1.387 0 00-.532-.51 1.256 1.256 0 00-.664-.162c-.232.001-.459.07-.681.208a1.324 1.324 0 00-.644 1.189c.011.239.087.472.228.699.144.231.322.408.534.529.209.116.432.173.669.169a1.33 1.33 0 00.688-.212zm4.588-1.958a2.123 2.123 0 01-1.083.334 2.15 2.15 0 01-1.067-.249 2.17 2.17 0 01-.828-.788 2.05 2.05 0 01-.325-1.068 2.15 2.15 0 01.249-1.067c.175-.335.435-.609.78-.823a2.11 2.11 0 011.076-.33c.379-.017.736.062 1.07.237.334.175.607.433.818.773.215.345.328.709.34 1.091a2.14 2.14 0 01-.257 1.071 2.113 2.113 0 01-.773.819zm-.4-.644c.222-.138.387-.312.496-.523.108-.21.156-.435.144-.674a1.517 1.517 0 00-.237-.713 1.394 1.394 0 00-.532-.51 1.248 1.248 0 00-.664-.161c-.232 0-.459.069-.681.207a1.324 1.324 0 00-.495.523 1.248 1.248 0 00-.15.667c.012.238.088.471.229.698.144.232.322.408.534.529a1.298 1.298 0 001.356-.043zm3.37-1.303l-3.096-4.985.665-.413 3.096 4.984-.665.414zm-2.671-2.369l-.376-.607 2.396-1.488.376.606-2.396 1.489zm6.418.144c-.35.217-.715.334-1.094.351-.382.012-.74-.07-1.074-.245a2.128 2.128 0 01-.827-.788 2.155 2.155 0 01-.342-1.078 2.107 2.107 0 01.246-1.055c.175-.334.433-.607.773-.818.325-.203.657-.306.996-.311.343-.009.665.075.965.251.305.172.561.423.766.754a2.23 2.23 0 01.183.378l-2.965 1.842-.345-.555 2.611-1.621-.111.366a1.518 1.518 0 00-.498-.521 1.045 1.045 0 00-.594-.164 1.222 1.222 0 00-.642.204c-.226.14-.395.314-.507.519a1.199 1.199 0 00-.142.663c.017.235.1.474.25.716.153.246.337.432.552.558.212.122.441.177.688.168.244-.015.484-.096.721-.243.197-.122.355-.269.475-.439.125-.173.203-.365.236-.577l.7.17c-.045.301-.159.58-.341.837a2.296 2.296 0 01-.68.638zm2.292-1.526l-2.182-3.513.666-.414 2.181 3.513-.665.414zm-.579-2.418l-.321.045c-.278-.448-.397-.87-.355-1.265.042-.395.257-.713.647-.955.177-.11.357-.178.54-.202.18-.03.376-.012.588.055l-.156.722a.793.793 0 00-.35-.019c-.11.021-.224.068-.343.141a.971.971 0 00-.459.614c-.06.256.01.544.209.864z" fill="#B9B9B9"/><path d="M110.47 26.513l3.062 4.93m-3.996-.934l4.93-3.062" stroke="#E4E4E4" stroke-width="1.088" stroke-linecap="round" stroke-linejoin="round"/></g><g clip-path="url(#clip5_0_944)"><g clip-path="url(#clip6_0_944)" opacity=".7"><path d="M201.693 48.704a1.552 1.552 0 01-1.034 1.477l-6.292 2.285-2.285 6.293a1.576 1.576 0 01-2.954 0l-2.285-6.293-6.292-2.285a1.574 1.574 0 010-2.954l6.292-2.284 2.285-6.293a1.576 1.576 0 012.954 0l2.285 6.293 6.292 2.284a1.552 1.552 0 011.034 1.477z" fill="#FFAA4C"/></g></g><g clip-path="url(#clip7_0_944)"><g clip-path="url(#clip8_0_944)" opacity=".7"><path d="M214.519 26.08a.992.992 0 01-.663.947l-4.033 1.464-1.465 4.034a1.013 1.013 0 01-.947.659 1.008 1.008 0 01-.947-.659L205 28.491l-4.034-1.464a1.013 1.013 0 01-.658-.947 1.013 1.013 0 01.658-.947L205 23.67l1.464-4.034a1.01 1.01 0 011.894 0l1.465 4.034 4.033 1.464a1 1 0 01.663.947z" fill="#FFAA4C"/></g></g></g><defs><clipPath id="clip0_0_944"><path fill="#fff" d="M0 0h343v193H0z"/></clipPath><clipPath id="clip1_0_944"><rect x="24.995" y="67.645" width="107.369" height="222.719" rx="18.137" transform="rotate(-31.844 24.995 67.645)" fill="#fff"/></clipPath><clipPath id="clip2_0_944"><rect x="57.187" y="105.724" width="92.86" height="76.9" rx="14.509" transform="rotate(-31.844 57.187 105.724)" fill="#fff"/></clipPath><clipPath id="clip3_0_944"><rect x="46.086" y="87.852" width="17.411" height="17.411" rx="8.706" transform="rotate(-31.844 46.086 87.852)" fill="#fff"/></clipPath><clipPath id="clip4_0_944"><rect x="129.912" y="222.816" width="92.86" height="76.9" rx="14.509" transform="rotate(-31.844 129.912 222.816)" fill="#fff"/></clipPath><clipPath id="clip5_0_944"><path fill="#fff" transform="translate(178 36.1)" d="M0 0h25.21v25.21H0z"/></clipPath><clipPath id="clip6_0_944"><path fill="#fff" transform="translate(178 36.1)" d="M0 0h25.21v25.21H0z"/></clipPath><clipPath id="clip7_0_944"><path fill="#fff" transform="translate(199.331 18)" d="M0 0h16.16v16.16H0z"/></clipPath><clipPath id="clip8_0_944"><path fill="#fff" transform="translate(199.331 18)" d="M0 0h16.16v16.16H0z"/></clipPath></defs></svg>