<svg width="210" height="301" fill="none" xmlns="http://www.w3.org/2000/svg"><path opacity=".7" d="M116.577 83.718v68.098" stroke="#A64CED" stroke-width="163.436" stroke-linecap="round"/><path d="M141.773 71.46c-2.043 8.172-15.663 18.387-25.877 18.387" stroke="#000" stroke-width="2.724" stroke-linecap="round" stroke-linejoin="round"/><path d="M165.237 117.086c-2.497 9.534-10.215 25.741-21.111 14.301-13.619-14.301-27.92-35.412-42.22-36.773-14.301-1.363-22.473 3.404-20.43 8.852 1.366 3.642 7.601 4.038 13.62 3.832m8.171-.427c-2.257.075-5.187.325-8.171.427m14.981 9.107c-2.724.953-6.129.988-8.171.953m-6.81-10.06c-10.215 1.616-8.853 9.788 6.81 10.06m0 0c-9.534 1.771-6.81 8.581 1.361 10.006m5.448-.063c-2.14.377-3.955.359-5.448.063m0 0c-5.025 3.299-3.64 8.472 3.405 9.1m5.448-.311c-2.083.368-3.902.449-5.448.311m0 0c15.663 33.738 52.436 47.358 78.994 21.481" stroke="#000" stroke-width="2.724" stroke-linecap="round"/><circle cx="95.466" cy="66.693" r="3.405" fill="#000"/><circle cx="124.068" cy="61.245" r="3.405" fill="#000"/><path d="M113.853 230.81v93.975H56.65l6.245-5.464a13.619 13.619 0 004.651-10.25v-94.605M119.3 230.81v93.975h57.203l-6.245-5.464a13.621 13.621 0 01-4.651-10.25v-94.605" stroke="#000" stroke-width="2.724" stroke-linecap="round" stroke-linejoin="round"/><path d="M50.33 71.871c-1.519 8.202-2.148 16.524-3.307 24.783m24.81-33.366c-6.899 11.52-12.651 23.982-17.731 36.406M84.21 83.278c-7.922 4.68-16.974 14.599-23.79 21.226" stroke="#fff" stroke-width="2.724" stroke-miterlimit="1.5" stroke-linecap="round" stroke-linejoin="round"/><rect opacity=".7" x="7.62" y="110.38" width="50.393" height="93.975" rx="13.62" transform="rotate(-15 7.62 110.38)" fill="#2FDBBC"/><rect opacity=".7" x="14.292" y="114.232" width="14.189" height="21.034" rx="7.094" transform="rotate(-15 14.292 114.232)" fill="#2FDBBC"/><path d="M49.369 141.961c-1.495-6.678-28.13-7.248-36.301 6.087-8.172 13.335-3.877 33.918 9.743 38.129 13.62 4.211 29.963-.702 30.644-7.018.545-5.053-11.105-4.441-17.234-4.441 6.81-.702 18.387-.472 17.234-6.087-1.153-5.614-14.3-3.977-20.43-3.509 7.264-1.17 21.583-1.634 20.43-8.422-1.153-6.788-14.964-4.207-22-3.037 7.717-2.106 19.748-3.51 17.914-11.702z" fill="#BE7FEF" stroke="#000" stroke-width="2.724" stroke-linecap="round" stroke-linejoin="round"/></svg>