<svg width="202" height="83" fill="none" xmlns="http://www.w3.org/2000/svg"><path opacity=".7" d="M130.231 81.673h26.616" stroke="#2FDBBC" stroke-width="159.698" stroke-linecap="round"/><path d="M162.382 47.01c-1.366 4.502-11.342 9.835-17.474 6.832" stroke="#000" stroke-width="2.662" stroke-linecap="round" stroke-linejoin="round"/><circle cx="126.904" cy="42.414" r="3.327" fill="#000"/><circle cx="154.851" cy="37.09" r="3.327" fill="#000"/><path d="M21.743 39.763c20.378.035 19.8 13.806-2.446 8.509 6.511 1.817 16.416 3.899 13.38 9.002-3.035 5.102-14.73-.336-14.73-.336 8.257 4.504 10.414 7.913 7.565 10.385-1.246 1.08-3.372 1.504-5.84 1.307m58.632-2.293c-26.634 12.8-33.152-7.18-35.24-16.78-2.087-9.601 5.166-37.19-4.087-38.573-7.442-1.112-9.757 8.317-9.175 23.065C25.695 32.133 7.25 32.152 3.15 48.4.015 60.82 11.653 67.992 19.672 68.63M73.59 99.45c-23.413 5.066-45.272-2.712-53.92-30.82" stroke="#000" stroke-width="2.662" stroke-linecap="round" stroke-linejoin="round"/></svg>