<svg width="333" height="132" viewBox="0 0 333 132" fill="none" xmlns="http://www.w3.org/2000/svg">
<g clip-path="url(#clip0_40_469)">
<g opacity="0.7">
<path fill-rule="evenodd" clip-rule="evenodd" d="M177.765 166.321C182.922 168.298 188.705 165.72 190.682 160.563L212.678 103.181C214.655 98.024 212.077 92.2409 206.92 90.2641L196.72 86.354L185.556 82.0743L174.391 77.7946L164.274 73.9161L163.493 73.617C158.336 71.6402 152.553 74.2182 150.577 79.3751L128.58 136.757C126.603 141.914 129.181 147.697 134.338 149.674L177.765 166.321Z" fill="#FFAA4C"/>
<path d="M196.72 86.354L206.92 90.2641C212.077 92.2409 214.655 98.024 212.678 103.181L190.682 160.563C188.705 165.72 182.922 168.298 177.765 166.321L134.338 149.674C129.181 147.697 126.603 141.914 128.58 136.757L150.577 79.3751C152.553 74.2182 158.336 71.6402 163.493 73.617L164.274 73.9161M196.72 86.354C198.697 79.1088 200.086 63.795 189.824 60.5015C179.562 57.208 175.26 70.6579 174.391 77.7946M196.72 86.354L185.556 82.0743M174.391 77.7946L185.556 82.0743M174.391 77.7946L164.274 73.9161M185.556 82.0743C189.455 72.1612 194.955 51.6408 185.754 48.8638C176.553 46.0867 167.6 64.4082 164.274 73.9161" stroke="#FFAA4C" stroke-width="2" stroke-linecap="round" stroke-linejoin="round"/>
</g>
</g>
<g clip-path="url(#clip1_40_469)">
<g opacity="0.7">
<path fill-rule="evenodd" clip-rule="evenodd" d="M39.9912 151.52C35.2945 154.425 29.1316 152.974 26.2259 148.277L6.0005 115.585C3.09482 110.888 4.54672 104.725 9.24341 101.82L13.5063 99.1823L20.8017 94.6689L28.0972 90.1555L34.7087 86.0652C38.3601 83.8061 43.1514 84.9349 45.4105 88.5863L66.8067 123.171C69.7124 127.868 68.2605 134.031 63.5638 136.936L39.9912 151.52Z" fill="#2FDBBC"/>
<path d="M13.5063 99.1823L9.24341 101.82C4.54672 104.725 3.09482 110.888 6.0005 115.585L26.2259 148.277C29.1316 152.974 35.2945 154.425 39.9912 151.52L63.5638 136.936C68.2605 134.031 69.7124 127.868 66.8067 123.171L45.4105 88.5863C43.1514 84.9349 38.3601 83.8061 34.7087 86.0652V86.0652M13.5063 99.1823C11.1414 94.3406 8.1094 83.7328 14.901 80.0355C21.6925 76.3381 26.5283 85.2416 28.0972 90.1555M13.5063 99.1823L20.8017 94.6689M28.0972 90.1555L20.8017 94.6689M28.0972 90.1555L34.7087 86.0652M20.8017 94.6689C16.7239 88.2045 10.0964 74.4779 16.2095 71.2869C22.3226 68.0958 31.0894 79.8094 34.7087 86.0652" stroke="#2FDBBC" stroke-width="2" stroke-linecap="round" stroke-linejoin="round"/>
</g>
</g>
<g clip-path="url(#clip2_40_469)">
<g opacity="0.7">
<path fill-rule="evenodd" clip-rule="evenodd" d="M325.268 22.6581C329.033 21.7026 332.85 24.02 333.739 27.8011L348.094 88.862C348.845 92.0547 347.26 95.3373 344.293 96.7352L313.186 111.392C312.001 111.95 310.682 112.162 309.381 112.003L294.266 110.152C291.354 109.796 288.981 107.649 288.335 104.787L274.286 42.574C273.457 38.9018 275.704 35.2374 279.353 34.3113L284.403 33.0296L296.01 30.0838L306.005 27.5471L316 25.0104L325.268 22.6581Z" fill="#A64CED"/>
<path d="M296.01 30.0838C294.533 24.2623 293.512 12.1285 301.25 10.1646C308.988 8.20069 314.308 19.2435 316 25.0104M296.01 30.0838L306.005 27.5471M296.01 30.0838L284.403 33.0296M316 25.0104L325.268 22.6581C329.033 21.7026 332.85 24.02 333.739 27.8011L348.094 88.862C348.845 92.0547 347.26 95.3373 344.293 96.7352L313.186 111.392C312.001 111.95 310.682 112.162 309.381 112.003L294.266 110.152C291.354 109.796 288.981 107.649 288.335 104.787L274.286 42.574C273.457 38.9018 275.704 35.2374 279.353 34.3113L284.403 33.0296M316 25.0104L306.005 27.5471M306.005 27.5471C303.248 18.5344 295.562 1.04061 286.88 3.16677C278.198 5.29293 281.611 23.9612 284.403 33.0296" stroke="#A64CED" stroke-width="1.38922" stroke-linecap="round" stroke-linejoin="round"/>
<path d="M310.223 104.237L306.37 90.3926M294.811 48.8588L302.517 76.548" stroke="white" stroke-width="1.38922" stroke-linecap="round" stroke-linejoin="round"/>
</g>
</g>
<defs>
<clipPath id="clip0_40_469">
<rect width="93" height="86" fill="white" transform="translate(125 46)"/>
</clipPath>
<clipPath id="clip1_40_469">
<rect width="72" height="64" fill="white" transform="translate(0 68)"/>
</clipPath>
<clipPath id="clip2_40_469">
<rect width="61" height="116" fill="white" transform="translate(272)"/>
</clipPath>
</defs>
</svg>
